# xmcd CD database file
#
# Track frame offsets:
#	150
#	19523
#	36837
#	64238
#	81216
#	101251
#	124161
#	148443
#	168479
#	193503
#	211969
#
# Disc length: 3128 seconds
#
# Revision: 0
# Processed by: cddbd v1.5.1PL2 Copyright (c) Steve Scherf et al.
# Submitted via: CDex 1.51
#
DISCID=990c360b
DTITLE=Guitar Escape - Escape -- Steve Middleton
DYEAR=2006
DGENRE=New Age
TTITLE0=Emerald Forest
TTITLE1=Canyon Winds
TTITLE2=Ancient Wonders
TTITLE3=Temple of the Sun
TTITLE4=Waltz on Water
TTITLE5=Sound Scapes
TTITLE6=Equinox
TTITLE7=Moon Shadows
TTITLE8=Earth and Sky
TTITLE9=Spring Morning
TTITLE10=Lake of the Woods
EXTD=YEAR: 2006
EXTT0=
EXTT1=
EXTT2=
EXTT3=
EXTT4=
EXTT5=
EXTT6=
EXTT7=
EXTT8=
EXTT9=
EXTT10=
PLAYORDER=
